<mxfile host="65bd71144e">
    <diagram id="fNxytvU7DQjPPSaCej08" name="Page-1">
        <mxGraphModel dx="150" dy="131" grid="1" gridSize="10" guides="1" tooltips="1" connect="1" arrows="1" fold="1" page="1" pageScale="1" pageWidth="827" pageHeight="1169" math="0" shadow="0">
            <root>
                <mxCell id="0"/>
                <mxCell id="1" parent="0"/>
                <mxCell id="2" value="" style="shape=stencil(lVfZctswDPwavWJAgudzmv5HZuLUmjh2xnFz/H2hqkpE0NpO3nRgSRDALsBBbl72d8+7wfPL5Xx63L2N95f9ID8G78fjfnceL/o0yO0gNw+n8+7X+fT7eD+/P99NltPT0+l1WuF9xvlKNU4ozx/zF0ex/P3wc7Y/jMeVvQhFaewLlbptHzyF1t4zJQGASrl1SJg4bwNippIbQGDKwKWUSEIDiJ48bwNyoFoaQBJKbhtQhDI3AF0iRADQLLQu6RLT6xagRnK+AVRHHuTNsUax9akW8iARtVIIFpBBImomSS2gkkcAsXFVQEowTKnboYIwlUClPcMqDtcR+jt0W4Bc50i58ymBXOeOEVOYEIAp+C4RAJDUY7EAWOCO2LWATAlkLqsKJAuAO+jv2gISFcQIR0UsAIW1JMu5CYDq25F0LmVAIeVcYHtoBkKjURdvARFTrnSUY3DoCdCROmKXvMl0JQfKWw/tu2qNyCVHriM1zHSikC2ggjNoaaTuDBXIhhafYwtABNLyDt0OAlxSivaMQ8KUPnVrBUA7fB9QKJjydsuX6wBZVGjVgwIIa0y2aWmXy6i1l6WRr/poATIj1Rafdmrkko4Ksc10UGkDAO+J27DqEgJKw4VF51bzDMp0oGgoDTWj69IOzjJs6ayihqaAZUZYzBkyTchFY44kOFoF5mUguM7j5WRf5g5FXoe0YOwZVJuLi+ys7EGLctWSHs+dWjrZ2v9z8Lp9tD2TIR99ttrOVIBSa2GZFvupxFv235r8/2+vD1/XjIfxcJhvKev/9lqin+Yrjdz+AQ==);lineShape=1;" vertex="1" parent="1">
                    <mxGeometry x="79.73741339565157" y="70.06915432084986" width="1.0988878569604847" height="9.77801262703363" as="geometry"/>
                </mxCell>
                <mxCell id="3" value="" style="shape=stencil(lVfZctswDPwavWJ4ASSf0/Q/MhOn9tSNM47T4+8LjcqahJxV8iZLWBPXAssp3r3uH152U3Cvl/Pp++7X4fGyn+KXKYTD8353Plz0aYr3U7x7Op13386nt+fH5ffLw2w5P/04/Zz/4feC886RczMsuD//XlFeXnxdAMfDcweolXwd7AulCuwLifn/TJIhwOcBEBIlAYBMZQTEQJ4BgKmUAZAccQKASPO3HqBRRQBwFMYTWMiF9wGFW4gNIIEycKk4KnEEFHLApSwkYww5UAIuzZ/9CJBWmZsAyVRHl3KFMQhTGAElUAW9J5EcjwCmik7wtrlLaU7eBrjWOQ2g3SX+fQBr94+V1v6NBQCiLZwyyoG0Jml87AACshSVD8ECKqi0MtinkaLXqXAT4bX9xR5RwBHeUcwWkEBe06oOhQqwdyTJ2jtQBiXo2Nxa5wDGmDamsRc4MrQtjP8MW9sLBbGABDo1MLG3AA8iiMq2lUsIkFJzoHcJzFXWsRtWQYMYOBO7VVaBS7JaVlq2CMrAtZGx6wuPXGKSFaCAoJOesKJnAi7prrGtpNwBgOgpjht3i57zCl/NmArY40Mbox2AwVDiG/Zo+3hK2WY1AvtbdWagAT5rH9v67vYCA3+KHUe6eBjNu0h+pLOuNsQdXy13dHkGVGNdC+MJWVsX8T+1gdUJAAdylPTzCNANnxGgtMbvRAzsomhP4I2BwU1QdEKM0Ugqbbd2Ug/JVa5Wrm6ISQWEkZ0bclVdMnJ1QxArwIhJrLh1qhqyYUXP/zfl1R6tQo24jilyWLUFq0cc5KaoUmVjj/zJ3t5IVMQBf64y9mqPpmnxdsJv2IutF/ZHLwur/KB4a1rnB+XzOgo/Vq+62pm4Hz59hfwAQB+uN9anw/G4XHj77/aGq6+W23G8/ws=);lineShape=1;" vertex="1" parent="1">
                    <mxGeometry x="102.77113626944191" y="69.67754053019343" width="0.7950450445454831" height="9.872689320370792" as="geometry"/>
                </mxCell>
                <mxCell id="4" value="" style="shape=stencil(rVfbbtswDP0avxK6UBL13HX/UaDpYixLijTb2r8fDU+JJbnHGbA3R+GRqEPykBr8w9v+6XU3OPN2OZ++736Pz5f94L8Mzo3H/e48XvRr8I+Df3g5nXffzqefx+f59+vTZDl9/Tj9mnZ4n3HWGDJmgjnz8XeJeF74OgMO43EByEI5V/ZCAdu7WO+vKwEAEiWuAC5QQick8qECeCbOEGBSBWBPEgEgktSA4Ml5CEi+AkRLglyKFF0NyDgMkULNUgrECQK4iZuhgADSxkGYIgpcJluzJIlE4Am+vnRWl3DgQk1r1jgAlvSKuQFIIXoVMJFYs3S71SogKq2xBUT7OSAwpdQCMrgD28L6tYBuNbuK0Ipk6Y4APlnNPt9dggFNbcWpPYqDLZQswwAKrtMktTfA3hWBuNqnQsF6IhE3iRcpg/1t7qKs9QcA3nZRjuSBYnAoF1wAHKiFkChzC2BQnioo/QkJkJRS0ekFq0i5xZagLgACqk0B0pUno/LsesOtHX12aWkyL0OZDFIkawFAd+BIplMM5JJ3hfUlACW3Wam2BOJgzYpLHmUrGWlZFXCA6TJJWzog1ZbUX+RF/I/26pDt+gJUyEi2EQwlGdSCBq3JI+1tCVGqU1EdtI3uyYakdmmjPysg1SdsTAAKiLUmbcwYfHXgzilGAY2ubsxJCnA1YGMS87lVvY1ZTwGhztWNaVIBps6ljXlVI+2bwMGB2Kei6/cN3Lq/awd0g8Ms9f4GqoV2HiuNPVRI3Z8bewdmhdANbabIzbpkczts42knOeJuf2Sf29aM/ZFuwsP3zY6s+wc+p7Zth/vjpVpu2vxB+bD+wkPT4PaTUD9uD8qX8XCY36PL/9sHqC7Nj1f/+Ac=);lineShape=1;" vertex="1" parent="1">
                    <mxGeometry x="82.25943638990054" y="88.32250094484164" width="0.5258314749157629" height="11.64898633295799" as="geometry"/>
                </mxCell>
                <mxCell id="5" value="" style="shape=stencil(rVfZbhsxDPyafSUk6uRzmv5HgDj1oq4dOO719+V2oa0pQ+ME6Nta5kgacnhoCg9v+6fX3cTu7XI+fd39nJ8v+yl8mpjn4353ni/6NYXHKTy8nM67L+fT9+Pz+vv1abFcvr6dfiw7/FpxnnJdQOx+rwuOnPu78Hk1P8zHK/NCtTcvcWzuMwU29oGSH9vr3519pQSuE5iCM/Y+UuYxIDJFe4B6gAEgBfKWsfpA6hiQA+VoKUeqgHNhkmIAUYOSx4DqKYgFYC9VoWJJK6uQxgCpFEIPiIC0AqrlkJQ04CDSLrABlEOAgGKvlCN5QFoBYk8oHkrbu036GwL7VY/oWNdEFYhJAckChJu8RgBvxSSZBLmpNvlvAD0TBaKSKz0AyVUKpe5KpSl+BHBWrhKIEelMJVu3FvICAdkGrmooEQcFeBtpxvrOVO0JOVFE0ih94JLAyrc40V4ppVaqRoHrTwj3Ip1tHDRHPU45tqRTaWIZATrxZb4HqPZKubZQvjtHEwnShrR82bShpQzVPundJI4YRU76HiTpXiA6MemKoAyqxLaUXfnhPyG0R6SOdiQGsdMuxFawukUEtDXFagdgKiAS2klTF+tMDmSpJoCzKZH1SoCDTgNsm7sKFqlJ5w3fta0Mq6UONN7WsqR+wxMTW0DESXczkcVEATjpZuCLmTyoM753ke6P8sf1KR3x6OBarmz2rs2AA3u2+4fcXDyw91ZEAQfgpsCw9vQP2TvY3W7uoxNrhfYdXy1okG7nztSKzfuixbCX34jBUQba/ODj4q65fvx7x7zMh8P6DLr+v3/36NL6ZgqPfwA=);lineShape=1;" vertex="1" parent="1">
                    <mxGeometry x="100.90334200929476" y="99.00091146476876" width="9.72746231269407" height="0.7148839974296192" as="geometry"/>
                </mxCell>
                <mxCell id="6" value="" style="shape=stencil(lVbLUsMwDPyaXDWWbPlxhvIfzNDSDKVl2vL6e2QySSq3EcPNcbKxV7sru/N3p+3j27ojdzofDy/rz/7pvO38fUfU77frY3+WUedXnb/bHI7r5+Phff80PL891i/r6PXwUf/wNeByASwVRe57mPERAv3OPAyAXb+/AJQIFBQgyIw3AAVSVgBOkJIJCKwAsUAOBoCBNIeMgMYKWTZAClAccF4GpASsSZcEriwDIkPWK6Bz4Nwygn1bJqmDM4QIBLEBBCBeBngPsSlTBDRYk5RJs04M0agrMYSklfOQ0VwBnfYGQrY4ULtCQHCGN+pr1P4mYEsHHL02AuomjRVmihOAgQ3ScxEvVkiGmapMTUbFLFbkJiNMVaLR8UuRc9qubAt34eZJajaVq4HRdq2higZAIqnLVGNrsK6hjzoQDN6QurYVrVxtPcaW+CoQc3O77b4r5YrdLKX5el2luUEvAsp/ABTBaW9kEc4gjbGtUnaAltJA2hlJQmvI4Ns+Jolyxv/FF5oASyc0CFw5VXqC2ZTAaRt5NPlGiDo7hKbt0I/lmM4GGk+L2xuiNp1iIoOA7Lfo5NhN9fok+fOoYmy+T0oAGcwXjk2/2w33lcv37QVFpobLjV/9AA==);lineShape=1;" vertex="1" parent="1">
                    <mxGeometry x="128.96433711810948" y="92.35208768331518" width="0.6258399051751536" height="0.6261841125126134" as="geometry"/>
                </mxCell>
                <mxCell id="7" value="" style="shape=stencil(7VrLbl03DPwabwWJenKdpv8RIE5j1I0DJ339fakaOvdqeO4YBrroIrv74JyjBzlDUrrL7759/vD1/k7it+/PT7/e//nw8fvnu/zTncjDl8/3zw/f7dNdfn+X3316er7/5fnp9y8fX75//TAt56ffnv6YT/jrBRdDrxMk8e+XH7SH2v795ecX+8eHL1f2OWhBe4237VuIYD9C1Nv2I+SI9kLsk01AEVDJgFIOxY2oJwJoQdyQBnvDCJoR0MZtgKRQ3RwyeYOUIBl3oZFds23oYwe00MiyioYEflFD6cQvUiiyA3IYhQByqLAPafniOcAGsA9pKF2l3ENqO6CFmgnAHGEf0sjrnaeAEkMCQAyRrFKxVUoboDfq3kVC29/QJUSy0yXjTjcLaDaksuL3AEhQEg+lIgXUERKbQwu6b1zNITNAX56zAMUCiA3J/u47wHiKvUFD2VcpaxhyG1AjRlxuIXHAAIAtK9m4mkLe55BjyMT5DDD2ORh50iFJyPuyGi1kDhh7ABnxDBJAtq9ln4McUX4OMCLbXUMkCPHWWnGVTMHosrYwdkDS0NikByqi8bkwhUsh7jttitHJHFpeAzgAde3MOcBoa2cNEzFlb1BkjSQrQk4BRioDhpQoa/S6OOIARKqifSAvJU6Vw+IBJCs04ntG1TBnpc496spzLvaRbMLwarJmdG4/kGIsLyH2GnG+Y8XG+fNtevt4OnVTGw9ETluKfWu+eXeJSjMG01ZYn7J04ty+LIa+2Auzz+hxmcbxMCIBeqT5iCk3iL8srb5lD2mh0SsLAMWsUEIi/mD2fX9+opJm9hVoKHRCjGYPCZvlJvz54J8pCJ8vpDpG1GS/5vjRvhH/N3vQ/Ej3y+yHgr0w/4noz8ZXLN4j1hVmz/2nO3sWv05mIk0ELV4E14dJgMUjJF2JP7+tiuNizwrH4XI0oYWgnsQj4x8VFJhM+UTLouMrPmH8bIq32xe6X1aRgaQW6p9W8kGWXFb2daPwPfzlQuiMgPTQz4tgKAmwWYM6iWf5pc0YAZxSrAZNkJvJWuRbe6YAKLSimzUokFwLkU1aHCt2mvKq6z9YnNEhRcz+Zg+GbLRPDF5hUgMkUKbEqUVXP+P6DUzrndYYYHBAdm9g6eJw/YdJ74y+dLHzFYDmQ4qrZIUBW1YDiCCANV2GV1il7YThJM0ALKQNoA0Bwn0J6q3EeygGwNLD5vBKPPhV4oDhhjR4ojxcxCU+6eG8tTBpiEsJrgBUe+x5DQGDeOsMUTcHxnxzp98a055mlNVPelJZ0wJHT+ZAMwBdgn8dopw1fEzTnEqdoOjKIv4bgCYUXRMUJtMmKAIhWukcTLKgSzM71iyAyvr7SnapZLlGauL7YDqd9zcMWtpZIhAx06AD6thca7T0tQnU3bcrFRNbIRCTuiZ0a88ypmKsI+pZtSw+uJUKQ+lYuFs3bDMfvY5bqTyU7pnHmaxK65JqUzJyrUqhqfOPUvlHqfy/LpVdJz3ytOsIp4s904BR1+sv/sAOEH28C81XZqsOjg6WrN0sxeFsgvbQTSU7tupYg9tEEloDjSeZgqVv5/oimEi8mmK2BPZ0vsO1Nl5x6I6CkXhKah7RMwJot9oKWVeMV+aj7kz5clJ+K+jRSRON+nly6QAsDHp2AOFnBo5X0rEMp4DWQ4JVquuXc4BTSkvnGLW35KqVTtPqqshd6WjcnwNGiPuQJruQ6KmuETc7a2TjasWTkskXbA4FJz179WRZDYClQeUnjZbQQIbQqKQZIMKQxhLdc4DgdYMc6QmXASDTz5xV5wHuPunc6LFejZh2lbiE6xRQ1J2LF5oYGSDu8VAGDaBynCAfmXLmJ+8duyjmv6xaKQ1ppvFlLQWvG7ROD3L8DYguNOKKc43Ona+k1Vk+6qFI7xzNywX7PgyuuHlgAM3jRxJA5mqQQirPkbKVKHCrSfjFL8GkxMoqljWbyEInSDm3iisDrTBkeYYUzOPnVS72hrSedwCUdhXnVS5FAO3Ku1PQqz79OSJj7qBKFSW57pQB2MWpsTjiyp6dRLujfVVKrS41MXuW/PhsbNBmWcR2xbQnBBDxGGJ6BX0+rs+gfd2IXal545BsWERBnycrxEvduc68AvnG57ObFce9i6swY+Wmy8JmWNLxy0B71h6I2L+a9iRiorstya+svvWK6+v29uFyn/bTw+Pjy3Xc6//x/q399HJ3N7//Bw==);lineShape=1;" vertex="1" parent="1">
                    <mxGeometry x="125.38882158278483" y="67.30707631548773" width="24.47533148800458" height="25.39107386253866" as="geometry"/>
                </mxCell>
                <mxCell id="8" value="agar yaha pe 1 hota&lt;br&gt;&amp;nbsp;to 2*2 ka square banta" style="text;html=1;align=left;verticalAlign=middle;resizable=0;points=[];autosize=1;strokeColor=none;fillColor=none;" vertex="1" parent="1">
                    <mxGeometry x="149.86" y="48.32" width="150" height="40" as="geometry"/>
                </mxCell>
                <mxCell id="9" value="" style="shape=stencil(lVnLbhw5DPyauRKSKOpxzmb/I0Cc9WC9duB4X3+/pR2o3WL3lBHAh3GPakSRRbKovuinH49fvj9cUvjx9vry+8Pf169vjxf95ZLS9fnx4fX6hk8X/XzRT99eXh9+e3358/nr7f/vX8bK8emPl7/GL/xzw+UogIy/8O/tiUkK/z/49bb+6fq8W69JLC/rq1i8vx5ft76s71ITWa+SdVkfsWO9D4hdUlwBRUImABxwtSgFSUoASWJYASZKduiSbVmvUWK/v75KXU+glf5+EVtdlJX61KSt9luYQb+z3tljhcbYfIhLkkbtz6s9pUknAYA3VntqFiXrm1hb13fOiCC6Bqwl6cRBYFhed2hNkhFWRwlrlnWEoBBAmV9vgCiNxAB5GVandgSBOEmbxNWrHalHEi1nicUDKnErWBaaBzCTzHygB4DEoRyKEQ5dGPOa5DUOrU/ynlMvS13d2mAkManWafGOS6x+tSB9dSvYyuLQ9AAoPB2q9PUMNcwKcg7ofoditICBzG1NIOvT0ecA5MO6g/GMG4C61rzykUm67pDxhDQ2ZLCjtxqtqi2LHcp8Z1xqUlcAKlsnRaDGyZwNkKcbzult3q2j8JBDI0y6UiM2KYQaGQkUPaCSMyBM/QBojQBMcvYAY4BDXYqV76AniqGR6p1RVNY4QEMUQo0BWItAzJR8MCms1Ih4wuKgM102AMjHzoAMVg+IrNwXTz60ycoAzZf7ASD5kLtY8CYl3lCK2yFNwp8D4tQtO7dGDnBSBoHLzKQo1ZlkNB9sk4I78nXC1qHVnJdQNXgc/Bk+yOl6ktOsKYJLnnyNlkqkqBUPiIyt6gUWDs0kKzLOadwxBfCcdiIRkWZqZuxwSFFGDZzB75Ak8UJWD/mgLA7lJOMaL8bhkNMMUHSGaW8SKWSlHwA61cd5jzsIXUSa9mmoSsdWTIBML6E/rGxFU8zk0NAafkAsVJH14hMIapyZ1A9tV7cp9s6EEry8RyxZQmALJ/oMHYUJpu6nyhIo+3rzoS5bITkHmA91VTr3Qf27qQnqOnPR5zr7UNdMw9U5GG6ATAMB8e1EH36CFVeIeVcrYWQlhWkkxBqHvl2JnAPSJOcGMDpmYQhSN5dVOmZBJXY3ZnU++dns4+91JlAhmo9u6h+JuBZ/xiY93CIAwMqABi/iwHimZ5LOvrzzqxEAKp0bCBC5Qrgx5I6LXOLVdWbwbtxlCivPsrVLBxaF5PUV8o2JyuhvfqrNan66Pszc2kpMpy102313E8VU8aGqWqE9PfibQPCWJfMmgLf1aabSHf+4wVvLbF7nHPWqJ/XZu+7cvDl/IoKVXX0GHzDIqkoIBxHlcmDMJezEh8Rvc1A5Z5z58mh0JEYWVzcS07tJ7b75B2pPPsiRDwpd8Dkf+KAX/WVyoA0KBAvefnbXcxxVAx1HxqTq5JcYYegYtt2lB/en+jKd+NSpfp5SKkJy8roo83il2STe19PzHibITBXIz75/+Xg9Pry/7Pl2fXq6vSvaf+9fDuHR7cWSfv4P);lineShape=1;" vertex="1" parent="1">
                    <mxGeometry x="79.52295085577992" y="152.87271214142766" width="7.389975356392325" height="8.439634649635863" as="geometry"/>
                </mxCell>
                <mxCell id="10" value="" style="shape=stencil(lZfJctswDIafRlcMCXA9p+l7ZCZOralrZxx3e/vC1dARoeSXfJMlfAaxg4M8vO2fXncDu7fL+fR993t8vuwH+TIwj8f97jxe9GmQx0EeXk7n3bfz6efxefr9+nSVvD79OP26/sOfifPOkXNXjN3f6RVTDP9ffJ2Aw3icATVT6eW9kM8ASMS+VxCpMAAiudQBEigiIBBzB4RArgBAKPVAVMBDwJcOSEKCAKbS25A9xQSNjgYoLTAfA5V86ICiOuvnQFFAOkBDmYANJTQTb0ChCI6UI0lvgx6SQS6pE01qKJCBl4La0GuY5e+HhKZOilZFBWdib5NJgQiSyTviZN1UgRHc9M/kffxcflGgGjcG5eCbC2/yWoEoMcgZD0UKwEO+2GLQAsygA4gnzxYQoCHoAaoFGEQ5Vip+oQHEILMtNwUKKgamwNZLEQGlmTgLgwAvaX1moyGTAKNLomASo8DE0I6SzZEqOQCk3EbBDEgAiNIyf15tILelUpAFAJJVZ0coFsgCslUWkdYmAjQEqmy9GoACR8H8f4YD1FFalGcCYXaLBobltf7N6FkZDHwr942jRzuGGT0rw41zG/gbx6cC0kd5ZUBzotwDKyuAGm268MqSoXmR+560ssawtJa1cVHSwN21ieln32eGpwoSVc8bxcgLqk1nXeSogPNIsXubg4UTUtsm3uXRHIzRti88+lO0gxnL59Aa+rbzlMUgx/ZWVZ/v8GddtDocL+1T5Z58uHv13wDow/tN42U8HKaLyvy7vZnoq+lWI4//AA==);lineShape=1;" vertex="1" parent="1">
                    <mxGeometry x="100.46780529254147" y="153.542092019979" width="0.511751430002615" height="7.908260710379348" as="geometry"/>
                </mxCell>
                <mxCell id="11" value="" style="shape=stencil(lVfZctswDPwavWJIgudzmv5HZuLUmrp2xnHb5O8LVWVjgvLKetOBJXEtlhz44W3/9LobnHm7nE/fd7/H58t+4C+Dc+NxvzuPF3ka+HHgh5fTefftfPp5fJ7fX58my+npx+nXtML7jLPGkDETzJmPf58o+78fvs6Aw3i8ApRMvrUvlDOwT+S4sZcNptebgEhcGgCLixYAAqXcALwhRiGE+rsCgiWPYgjVgQqIjjJyyWuXEpNnCIjtDtmTxWlNoS1Drom+FYPrANncBuSsgy6FGABSpFQ0IAGAJDElDSigcD6Rb126at9FBDtip7dA7WoLmS6IgApBJmt7C2Jg4qTLEEErOQqs7Q1YP1JU60vSCgi4I4MAEN1coqgA//dcrpojlzUA0S1Ib/MWQHJdUrFLQq4+S3DG8EKWUFqn312dUd0mj7tCo8YohkrHTxtA0AIwGoBaO0ql4xbyBGnWNuhVfoo6dEGgESD8sZuGjLVUOoKiMeYXBiuak25hrqJBvNU+aDlcUYZQ1fVO6fFU2vVXtM3rplgRT6/9WVFn1kq4Iv+diKycLyzFLeeXjccjyUVQ5h40T9CTztRuXV7dVcJ+2kPx6IKV3AN7kUuXlL1FvcCaXJjuIZLR8SL72CkB9idlfUDA8eZUqXFfPuWY1uUH1UuoHba0w+bT+B0Aefg8/L+Mh8N8d7j+ry8L8mm+aPDjHw==);lineShape=1;" vertex="1" parent="1">
                    <mxGeometry x="83.60558008612747" y="168.40020496948858" width="0.36518365124974994" height="9.846543828780243" as="geometry"/>
                </mxCell>
                <mxCell id="12" value="" style="shape=stencil(rVfRbtswDPwavxKSKInSc9f9R4Gmi7EsKdJsa/9+9AxlkTnfYmBvjnKUSB55ogZ+eNs/ve6G4N4u59PX3c/x+bIf+NMQwnjc787jRb8Gfhz44eV03n05n74fn+ffr08Tcvr6dvox7fA+2wWSOhkF99EWvP+98HmGH8bjDdzr36HDR5Kwjg+83D9Tdut4DhR4ied1fPRUpMML1bqOT4Fc73+hWtbxORCXDl8pg/3Fk6QO7x0FkFCpFN0igAISWhKF/gCmLOv4KuT6BDlygIBayPlFQWTgj+KLDRgdUCn1AQdPNUKD2hswrgnvriE2C6VdAAl6ROkNcqGEDbjPUtFCQTTofos6ClRQ1ELSuzRlGkRd87Ly1EkYdGoOXA1SK/Y1A9efUDIxojpS7IMWpohciuR7g6TliFwyBioIdZNLKjAJEWeC9gwVwKY14gYyvGn/oP1NYXjymypPyOctpe2FMu7PRfOwby1+b39GaYfeKQGZiVGSjMhIaTp4p4wVDQu5ZHRSiYEuGSG+ycN/srCXg1YXA9Gwt4/KkgcNZ+83zZOAsP9ygTrItb2hq28rd44AGoMDJ9gZozIUbzvEqEFEFW6mJFWFANJqpjDlvoCs2v0zRYD3S9XTFKEAHNU+QyXB28oZoRc4BLgmQdd+znAMsxd6IgGMWYGJjfP7/GGGNWfiVUbKlnz6CEXY8CVwajblwHB62Tjz/xOuH3+eFy/j4TC/Tm7/Xz5HdGl+yvDjLw==);lineShape=1;" vertex="1" parent="1">
                    <mxGeometry x="98.42732549440308" y="176.1135032707286" width="7.155767320250365" height="0.41979744774805783" as="geometry"/>
                </mxCell>
                <mxCell id="13" value="" style="shape=stencil(7VrLchw3DPyavbJIguDj7Dj/4SrLkSqK5JKVxP77gNniaNic6Y2OSeUm7aKXBAg0HuRFPny7//T17hL9t9eX51/v/nz4/Hp/kZ8uMT483d+9PLzaXxf5eJEPX55f7n55ef796fP1/6+fumT/67fnP/ovfL/ivCu+g6L/cf2gVaf5709+vso/Pjzt5JOLYZEP5/J5/NpOXsq5fHMhonzQc/kQnYcFiitEgaBOIgI8W6G6ojMg0y3F6EKZAUpXiOpSnQHiqieA6rLMgDh+4hAgYRzSBgjONwJIqENtLhMdJKMOtbpIdBD7GlbIrrIVbANtBqhTskLyrs5WqomeQwquzlaq0QmxUooupxngnQgBiEuzL5XiKjm4ZOcwx2fRESFnALBSsQghAZcsHmalcx2ccAao88Flc2+mtLnGHHE5DO86A9RZBy0cUJzM56DiIjOrccSsdGr8pOvwnA1gQcuUrmhW867IdDAenXUQU5qvUGezinArNaRKY1tl8WA2mZU2Oo+JAsCs0c6BmFX9+L0NYAmJuLcB2qy00bMSK2lAK4U8PjkGCFrJMkZiAIu4WemQuNIZE0qQ4SzHgDZIZQNEp2RL2WhrZo0QXCGuYRGsBQGBkEBuI+Q3gKdbMhZCK3nKGiWP9LGlLJqAin0NhYATUgcYtWPl4wI5NUs2KYE8Sya1IE3W4brHhY9Hhqn0yCyBN0iHLrPfF1cgQbtE7GM1S0R5FvttqfSMMokHtW35LVHRQtJ+H86rUD5tGz9vWYcSttkHmIUTvFVcEJTJCUk5dr5l1ldoxrF6C0q2LYKO5esgzi3AXCP2qUu+CcNBzuQTcApNHiYvuB/GinVJmIHyQ5ef7elpvPT9F5BnhGXyUNv5odCZfFWQZ12Cna9vIE/5ZEnGnsZXr9cjyrP9N+QrTzNA5yvcP+WHMNx9d74s3i3FVZBvbD8yCum3eGH+3/kNKrph4FN+m/0/U3taVwn5olJ/Nvm2JEhq0IJVcq8KmMZlifg0zvwM4CHkrSTlOQA5otGgsUMosw52yvQUrPuBU7ail7mR0ToAMi22uh9lBCghLgPkBcAqTAOAlQxAXVWwCbTcR30pjvHBfgWmQxxF9F4HVh1EZHcDZOYacTm4zAdBcbjaDsAa2Q4AX1JeQUXsGiMfKHQrZQQIB9RlhcCKBFmUVppFui8JAiJ3vrxYidYtK6/qrUITI045cyekmd5m3ojpgAB6cFb7Lu5dbpi1IaDx6jGuIcqsFIdN9gCeDyGf9y1xgCwRx3prA8RlhfTeEGUTiA5YAohmoHcDZBR1GyBy10gjvnYTCDaGNECBLFr5lpZGKtxwPl0q+cQjTkf6+KeVgAFgxuFHEjsDKDaD1PcSJqBC56I9QGeVbYfMRBHnqImbNGB4Cr0kWIvbSJv3f0PzxRLV/83Xf7z58qs9aYka8Ook0OFDW+41Iq+Z1fmZT4TL5zH7e4t3dkvZKg5xdST0Y/mG/GCZj+gbvMea5cZ0rCLjttEenikMY+tGCaJPu/D36bRR0OFujGPbdou0BzCTerzJDTdi0hrghIDISEhxQmYAIUbtI9+KAHZtWtpgtX2eJDxXMrYUBmjEUcvSqYVAx9bZPDUjgJUfebmuC/yuOMeh4gYQepOrbdFBaLepBS8E+yCCeKvqki6VnoMm7Dat5lLiGv3WBwCFMowu/ayVgSzla8AUaBzcyDmoR8qIG8ueAfLSR7FhivqliW+0iTcA0rYMdzwEpMU1pFBfMgBcRCU+EOp3lHDPqvSkU8ViOTV68WAAuLkyZ2EXggaAtxPm8Kx66bfRkH1uKF1wBYtyRpUpYz2SK+1nDQD3eyVyHRTdu9y4IE84GymVv51ImNOrp3OFtAxTqtDZiLkaTC4sxbCyLS1lVc2UNaQtl3yFnkN/AwCARl82SMKU1XhpLusDqkhLmYMnWkLJuPdy8FpJ6agjLnM2K4eY0qEhL/XpO6vfdJSbG6DS0iFEfKjQtjWPyx+8XTB5NodYClyTZx1qOtgP68g9TsB2JewJQJcNsXTl8Xqn8QrUHxiokkjw4zHM3kB0/349AMKpS0Fv8mwueiTPhpYmvzoQ8bilfDYPZS/Ftlp5J89GIn5M33fy7H2FxxuC/vCT7ud9D0tvy9sfb69Yvzw8Pl4fwe6/x1ev9tH1xax8/As=);lineShape=1;" vertex="1" parent="1">
                    <mxGeometry x="108.98190611797662" y="146.75911012074994" width="25.647063451071897" height="25.446731784547204" as="geometry"/>
                </mxCell>
                <mxCell id="14" value="agar yaha 1 hota to 2*2 &lt;br&gt;ka square nahi banta&lt;br&gt;1*1 ka hi max square ban sakta" style="text;html=1;align=left;verticalAlign=middle;resizable=0;points=[];autosize=1;strokeColor=none;fillColor=none;" vertex="1" parent="1">
                    <mxGeometry x="140" y="116.53" width="190" height="60" as="geometry"/>
                </mxCell>
                <mxCell id="15" value="" style="shape=stencil(lVjLbhsxDPwaXwlJ1POcpv8RIE5t1I0Dx+nj70thoa1FrcbNbb3mrERyOKS044f3w9PbfufM+/Vy/r7/dXy+Hnb8Zefc8fWwvxyv8rTjxx0/vJwv+2+X88fr8/L77ala1qcf55/1C78XnCVXKsiZP8uLZImXN18X+9Px9ca+ULbaPpq5vQ1UsgakOAc4R3kA5DQHsKEUNKAEACjEsQc4MnYO8JmCGQBghZCI3QDIc0AMxKx9CH4OkO+xclrCAKKUMvneh1haoDcBmYn7PMQMw5oT2d7pmKAPsoJPHSC4tsltgGlEaAAfYOKq032UOJFzABDbjhtACJ+A00no3SfOerIgrEm+10dJKhD57Cj0BWrIIPtAWdsXZF/IKo8pAB4VR64PqaQARLTI332AcmPutr2UTp9jy5SQIIkDPaAqCKCdNWsEV1Z4MniJ2JdCCBQRIGpWSNhQFgQQFCCSBcyWsJY+bWUVqRnAKYDUPwJ48nkAIKe5CdDNlpDSC8BG7XRAXHK6duQTSDAEEPpulXE5V4BiqwT6zpb6cpOCZcA+2bFTzac0xs8ARTWftbvMEhdVL4nkMZdUyQkgIR8iGeVDbl7NALFPXJVy5IMUkAqrb2SZyYZViUtUkNOpydbKJZlLcInGfksSN4t9sL1SypoZ52GsOFjTnpJqPgZ3B0Eo6ZMlHGYfD05Auor4KoC/V9Qh6ERAH2RIUNyQ5CNhclq+6+QBevQ2AK0QWhDXBmHgcFWGLs0Rjg01cX2Uah9FYZWxXAHWDrA9CIhY9047bjU1mzRSzyWH5+48TPYCQMIkIuEHACOAJC7pKCGdyUNXZKyVQjXV5DxDnclFOx1k4EMqYLXORCwbdQUl37m1vZkPaoSTQNs7g3rUgIhOJ1lP9tm2MXZ2nFGnkzr3AhGoBya1JYbUGI9kAkDjzHjoEwAaBcZjZQV86uAqTQ7N0uPRuHbFTx2+BeCQaujTvdgjtR9uD8Q+ABkzG/tBtw1mQ4gz0CQRDDUFOJgz06Jxw9MEv28Urw1U4eGkkVaV/U973NqG/ch5NAIJHvxNHjaFIZ6J4cXHkC8pbAvtx8shxJ/P3lbdt5eHf1djL8fTablZu/1fX6XJq+Uajh//Ag==);lineShape=1;" vertex="1" parent="1">
                    <mxGeometry x="284.04472261064757" y="59.41135392721122" width="17.024694294888548" height="3.343932354281393" as="geometry"/>
                </mxCell>
                <mxCell id="16" value="" style="shape=stencil(lVbLctswDPwaXXdIgs9zmv5HZuLUmrp2xnHa5u8DVaPGgCzIusk0lsRjF0BHD2/7p9ddF9zb5Xz6ufvTP1/2HX3rQuiP+925v/BXR48dPbyczrsf59P78Xn8/fo0WA5fv06/hxv+jriWUeqACu5jPElo7d/B99H+0B+v7T2KE/YhgCxAQM0CQH46uQ0gNBKA6OGjAYjIUYbgkKsBSCjSpdQQrBgKXBKAXODTMsA7ByfTxGElK+oCknVgL3NYBtSGql4oiMYLpcLJqFtFc8uATKAiAQ2lLANimbI4Aa7ycBPBVIhNP5GsxBZk0kFEwyeukwo6oxrcYKqpmCOaQT6nQ/7i++0cTUX9b+9QrYBJ640L7w1ehIwkParFfIHV1YIGeEMNqcK7LYBCiDRzyUhSzSC/JWjWilaPndaByfKFlboxzaoink2M4T7ZlVaYV7mPzvQZDUCuSKoD2OJJAXmjPjOy109YLYD102b6tJqMdxN17mxjYeZRmk4WBHqjERtJ2tq4A9qm0RAR1LCyZ0/SrFgZbhlONrCV6Vmmf+8czxW0af4Tguwu9n4RkaSQo1ktloCMlsxO5Fmz8npvesPXxaDsndGHiO0lOx3IIkPU1bX1mJJedWz7PBsGtj8l6/RzvGSkP03puC+fvD2qSWDXi7Wt7G06bN5mV+3542t1fukPh3Hzvv5fr9p8NK7p9PgJ);lineShape=1;" vertex="1" parent="1">
                    <mxGeometry x="337.166200650444" y="51.309827319746205" width="0.6884029680852062" height="5.333790457076874" as="geometry"/>
                </mxCell>
                <mxCell id="17" value="" style="shape=stencil(lVfbbtswDP0avxKiKInUc9f9R4GmS7AsKdJsa/9+EgynIZPS05svPObtHFKe6OFt+/S6mWJ4O5+OPzd/d8/n7UTfphh3h+3mtDu3q4keJ3p4OZ42P07H34fn+f71qVv2q1/HP/0L7zOuRsiho2L4mJ/k5cH32X6/O1zZi0BiZY8CoTiACqIBzUOsXwMqQkQFoAhIDiAC6RSoAqIDIMCqAKkAsgNIEEQXKUJNDqBA0B5KAhYHIDZpTtBvvwJgCBB01i2t5NWVgXQStbXaybp3znhgSE7WfGHCBSAgTkiFgDQ3agV2Qkq8UOfCvs863EUQLkW5cpGzU1iGQjaJ5BCcAU3SBcRzsFDtYp/cIgWbcuM7O/YJStT2AdiLh4B1m1vjgyOfWCDriISBHYEmhBotwJsZWQDDCIAb9WkkJClAOJJ004pVTyurE1Jnsvaw0reuFUM8nxjte5JGmCdtUN7o06N2EbscVsTTxmIZ1GeBgtaFNwKafuqNPr0yYbDTvo8xhxvxJiJ/To4O4lF7XGjzn6uBoOr4V3ZPtupcWW6NZPr7K9uT7XxZWc9i813Z/73BmhErJwxEyBqwcobhwTMSsNZlcuuD0W7BuFD8vr1YQuMyOe7zOYNo2Qe3v5SswgKQw7fUxpQYe0/yOQPGAfuSIfBAPE0emAbyFbSE9uspNycEv1/9QKvr7/Nh9Ei+bt8uPs//L7v9fv59uH5v/xfao/lfgx7/AQ==);lineShape=1;" vertex="1" parent="1">
                    <mxGeometry x="357.3826885388311" y="50.523413318457585" width="0.7749077107915322" height="5.944089973908341" as="geometry"/>
                </mxCell>
                <mxCell id="18" value="" style="shape=stencil(nVjbUhsxDP2avGps+f5M6X8wQyiZUsIE6OXvKzezEMmb46Rvm43O2tKRjyRvws3r493LdsPu9e2w/779tbt/e9yELxvm3fPj9rB7k6dNuN2Em4f9YfvtsH9/vj/+frnrlv3px/5n/8LvIy56KrGj2P05vnFU/b8XX4/2T7tnbe+Kso/kIrCPlL2yr+TR9yu1puy9p9DOA1IkNoBEyZ0HZEfOKYC4zMCFnKhpFzhBQPEWEGSFCgCFmg5qkBXKeUCVoCfNgqMAwlozZU2zENPQCoVK0IBGgQFAeK0KkMIMELIGFPKAOAFE7YNQmRMG6LBmnKwdoH3IhcJkBQ0ojhIK6wgIlK8DCJUZAiprQKOIAI2SDmtlyENzFHXySTpmwHTzNvkkHRvgobE9QLJJpBotUtBnun3o1DogUdXJJ2sWtKVis1XWZLAl7wadaR/UrC8hVOsj1xoxIiJQbRaQUH5nqskCKlihVKszAmggmbL4oJk7icO6fovgj0uAMCVns0kABQBE6Sx1bYn0OsBRqRbggH4LgI0PlQpwOvJAhKgh2lK1VU4ADqRfysvfH4CyeHWuyvlmAUhoShyyDwN60arXbEnOcLnKafkeh2vC2tOfLQARJwArNDg1RGiKtwCUfLWtqABK7+rJswWgAyTtSdbJNzujmYdkwjIgpZ+HPSGhidl2DxMpi0NNmYilnFGbfViOrwfwwtOFJUKEyUYJF6GYBmHCZS5KR6U7oEkhjUMNmpRq6Qqz9mHSDIh8X9duJG/FddLQCCBp2Zi0TCsA3JStAHDb1wFXNZYdoJ2etK4doI9ob46x01ETN2m/Ow9a+iYNvjBtpK+PEKjINRslSXikS6IabRyDcKEuuhWQQSuAsIa48HoyyiHiZLwNGiDDIprMmG1YGY9yPlu97wMvcNq7haaTkTqibF1U62RkB+ZuOSuX3QgMbTG+cHD2/sBBeeHlsuDTHFXbZLXFwblbaj0bcw9c9cEOoG7pp9fth5EY12UOo7fQvi7eXbafwPYSAPsb8nLzclk4Q1vO0mVsSdH39rIKJcN/XG5N7OXh8ybtYff0dLyIO/3f3rzJq+OtXbj9Cw==);lineShape=1;" vertex="1" parent="1">
                    <mxGeometry x="338.38667280293254" y="66.54515746162153" width="0.26587365272777247" height="6.761881981189344" as="geometry"/>
                </mxCell>
                <mxCell id="19" value="" style="shape=stencil(lVjLUhswDPyaXDV+yvKZtv/BDKFkSgkT6OvvK0/GSSzHG7iF4I1kaSWtvIl3b0/3r9tNcG/vh/2P7Z/dw/vTJn7ZhLB7edoedu/6aRO/buLd4/6w/X7Y/3p5OP79et9Otk8/97/bL/w94hwVaaDg/h2/EO7ffDuef969XJzP5Nier3V93nuKxkAhnwFAyGULCLwGhECcLCAmABAKzgKSWwNipDoDgIVYuwOXgLIGpER+SkMFFpJ0By4AHkQpB/JxBGQKwKWc+++dAAmGNZeJSpGCXwPYkTdh9STAAusdwgAoFQM0cWUEFMqArZxJxiiVTDEAgF7auBSwhWqjpN8EUA/6e6Ye1MkAXCqJeAyrBtohC1pfdQDkSAUkTpzlUiqdv9cBkdzoUlKXAPmUmzy6FDGXRCj6ARC4N56rgOqIxzx45RJIXA2WGj7BsNZEeSzRSgmdz1THguMetevnpXO/n9e0gBDVagtac4AuXHvLOp9HLUnPlzFAWgkgx3q+jilLJMB/75xlkTZVUAjNgEmx6w1kBZAxQl5nC0pZJTaA1PvBCmCmoedeSyuAmbcKKAggVJIFQNpJ//cJoC0PWwhj3nyEw00B9g6eHKpNsYlWHxGzJ8mQb8XICIB468Zm2HpKYNa2HIyV4Hp3WiY5m/Ow8pVFtjJvVBqbFFPFtDZ1oJ0O+28KjSmDKrhSyToDcRWYVqEMEnyDMjVrj0OaTGEqh7AFP+ZA64zxHT4J4C5KT/3UU0Z3UG0+ahHlNaMOr7Q3FgqOku/S/VQ4oZfSaiyXkUlRYCk0FTuWWsrdyZW0SKMFVboZJE7FSzZkdVhPTbpWRR+SFioZnVGdqWuHlcQzd1Ah7ECDKc5GSQVTAhZYLDU0MwwsMNuWpIJJwKU5WXqrYIogDyrmgwHEvsgt1wUDSJDeupCIuUOGm6SuPGayVYYSry1VxqUCO3db28QCKqgHXQzNqDoPlw+unm1aAAvzclvrJ9fns6r54ILeui2wMD8BKAAOlOmRoY08EKXpFaMNDECl6ZXkYoQtADzFCIlb15XsxfkAQuQ6kS9ogZI2bWwVv8K4KQNYUs0DXfsBDKg9j9fm2R8PK3O6r1TYXKZ4ikCKTvmS0re9j/Ghve8AyfbZZ7nb5/XD+Q3wcff8fHxCvPy/fTPUr47vjfHrfw==);lineShape=1;" vertex="1" parent="1">
                    <mxGeometry x="355.5766195887087" y="73.59379284307607" width="7.023764517729956" height="0.8397252823321347" as="geometry"/>
                </mxCell>
                <mxCell id="20" value="" style="shape=stencil(7VrLchw3DPyavaL4Ah9nx/kPV1mOtqJILll5/X3AbDg7bO70ysdU+SbNAjMgCDQaIE/xw7fHT18fTsF9e3t9+fXhz/Pnt8dT/OkUwvn58eH1/GZ/neLHU/zw5eX14ZfXl9+fP1/+//qpS/a/fnv5o7/hr4teaxJq1wru7+1Jbf8++fmi8HR+3itkSWFWKOKZQpTgZoUoTYmCkxpnBS+pHivUIi1PCrWKOqKQJKdZQcUlouDFz16yJykfK5QiefaSPflvVbcVkjidFZJ4puAktFnBSSQKOYvObrUn2ROFIKXMCnEYeVNBq7RZQZtkpqAS5o1Tiy6yD+pFQSFKDMcKyUJjDj51XCGhW+0ViawhOWnzTtsrKnFrLFLmfUhBIomlmIbFQyGaW8lOx8WkmKWQNYQiCgpRCllDMC/NCWTfZLEUvLjZrfZNttO+ipu9dP3mbQUVP6/BvumJST5ImL/gLViIWw0X5zX3TzIMkDJjhn2xsAQV52d5N0DkduSJzvJVaiFRgUBfKKhaTM6JkymkWmLOzlFqjB/YdjVGyVL9qDBbRRAl8WzYHNHzgXjeS52x13aWvd98M5vjrYoS+bjEchzpcCBf5p015xcS+0nSvFeWjRSo0Z5okUk2Vxd4SNQ/ipkSuT8zpq7J80zxivKVv3+RbyT2V3syhRLL3IzygYSzfb2hPCtKikWsy5P4Me8t76dlVXJd5On+alnkyX7p4Ervtj8u74/E/4o1u/ufyyeU9zT+gcFa/DeC/EspsnLK4iGNaNzlL8/3CvhQaH03ujvb3xGD2hPn/QpuROCBvIfKVcaOHOBbnd/vrSNglAnj0xudIPZESXM8WDtA0j2upS7TtwOVUWpMGO3UtrlSSOyEBftp3xDGyzbXjNg7sB16AHcnER2KO8p4gM476hnjN1FB3jPSkLCuO7pRvSoDDxgGHrFa8E4QR+wxFgI4HmhZsaoTANco4bTWws04kmhrniLaY2WRpbk17jMO8oYwtaWppbRKA9pfBjE4koc6XSgsmDzE29Y0HMlDI1VpvHV5BfnI7V/ezzjzLftpu7z4p1IoWf1fKZZYd10LyjN7PHaylcabyWfsWBjN690+yrN8V488o3Ia48fPV/lA8rfLY11hYNvtn/1ZKD50/8BIRyqXr9hF3dnfhvZQ+YB1/Y49YbCcd643DFb3Tn+GkX7v3K8b8jQeArbId+ItYFt6J54D9gl38wXmOPfzEe2/Ew/fJW/4v+QL26+U13hjeGj1C+I5U3/GNsJxV+8YjVSsd2kQ0aP6Xr+nXl9Z9VWeteHGTzzyDRbPxn+gHhlgEPs7vwJePpjuAX1bxO90UciuImXZBcUzFc/IrejMc2l56ewsYked6LgqiZsDjQ/D0oojifE2SXOY2cY12v7lpX2ieYsw0tszhjt42GE8m+IU0vKwBerRuGFer0UeCwXFdrEPm8lu5XGWs2u//Y/x04/x0/92/ITxkwceHeR7AfnE+8AxvN6Ngxn+RKTxlo+B9ck4AbGIZQfAC626nl0cjO+hbbfCysZbG7pu8kpPuxzGjw8U39w4FhryjdaibUhyZUnceiANvMl3OPtLFKs8UowkSlIlIFQp7cADIvkGFUdzwvntmc8PxrRm1x4Q8Yww4vm4qmI3YWHA0tZeB8cyRuDoKddy4N4LNQt8HfOCXaVm1xJ8Hecwu9RSlrp+GR1nPr5MY3K9KbRBP24rVAx/q9Z0uLvRzD0cMmqYcEYaKx1nx20stCWB54MxjwPzlOjk0H7GOwCZQlCqS142OtNeZz/2hGWyKpqknAXp0g32+x8s3yKOPzPH0VyQyGWlsVQcHoxkfgGlpOHEDXsjv9dTlxFlodyyepznVze67tsKC/uunE1f7zptCoW2wW1JoMZNahFzuvHzrJbxQlbjDK0tdyvsCcNW+7n5RYHdQms4i+g334iCd0tdNo3ELpTc1FC+bDj4azxeu0JEBQbHbRlh9CdcoSwm0VsxDdn7dVVHCpBzO8cdaaRlEY1vdlwVuF/Dsgh6C/K+gv1xvXT55fz0dLmzuf8dL2nao8sFz/jxHw==);lineShape=1;" vertex="1" parent="1">
                    <mxGeometry x="342.1383496004308" y="56.5838147017387" width="12.568291147700839" height="10.921548527291732" as="geometry"/>
                </mxCell>
                <mxCell id="21" value="" style="shape=stencil(7VrJch03DPyad2WRBNez4/yHqyxHqiiWS1a2vw+YV5zMNDg9pVMuvsnP7OECoNEAeZMP3x8/fXu4Rf/97fXl14c/nz6/Pd7kp1uMT18fH16f3vSvm3y8yYcvL68Pv7y+/P718/3f3z6NkeOv317+GF/4647r3eUyUNH/ff8lFVfyv7/8fAc8P33dA6rr3gACAWQXKgJyI4A4F7AHlHNA6y42A0gEkFyzS5JzQO2umFPKkQDE9fgeQKmu2iWRYy3BxYCA5M8BOS0MF8kppeYaHGt2nbhGkvm9HaCQJUlzsSIgkFMSPVYAJOpL4s0p6SfIscbiuiDAVwJILoBrRBeJt8bgKrhGcInsIfTpzBvAu0b2EOoMyB0gdALIrh33IN1VNkNyURAQ2QzRVQPwbIbgpB8BjTpfUEt7MwNxvo60NMYTM7S5wd34QMYX18z4SBwpIwFIcULGF+ePbqTB0eh4iGYJ1E/b3N0cr78IMXFHH9LIaOT81cLtaLDoaeYJGrnHOAicwPS/ITTHnITmg9r4mHmUlcmKdMEeKPUq9MPRZsoFxIXiRgxzvL/6fsbxgZhAx5cO41lQRmMyT0NMx/eA4xmXxjn9br8kHej4gOtJxCHG+ArjK/8+ZI/gPPGfMV5gPAvh1fcZ7Y71Q0xerScEGC/8+15gPNNRulyIF82VhCKG+SG5Tl11Fo/hOL5Syh15DM7TU+WolBIhIJNLjCH81IkboFH1W1Gw6JEySaRZ4MhxyttCtpycP1pAeViYS7sGWUM5g4UwMpxmGUZBASWgZJeZMFikeerSyHCJU7oYKZQo5Saj2zXrke9vIn2Oz5HXKtM62/jKz9NjbVMirQvCpj43QKW6QD0+QNKTSZOnUXb06domj53p0XTcdItcGrRpow1QZlycSeR+BHSlGp4p/dHvtOqkqT7OzLUB0hR4a4C4eowcrZwjm0GmI+8Aic/QDaDxGTpsulHVvgTQU5Kp0TdAn7L8dNMFAaygG8cqCLjYNDCGAjrfdDIzdL6kaGZojIMFdWnvPM/KrEx2gMA37Y80PAzH7QB5ZLgGXxJIi+F8TFsIap3h3ixExUlGQGSpQWYm2wEC30OxM/BTqt3sgQO6WRJVnKbBoXa42IMNUSYwFjP0afvTEO0IuDBcNd5amQxWO9iI4zNAXRT8RSUiM4vvY5SzwDsBAbs0vfBNeOy8akYpxDc0ySVw13CVRqEcaW1+4qxgBjZuiYuNPOuJTQpwywXDxjVRNg6mRC2dCriOabckKnArduNyp4LbtMoyb3MkrDCy1pzMLVAFJKUYZgJXQBDrfkmweSzhU5yNpJPxKOg7zSSmJSKZ5gU/uWRXYPD9AslrAUMjf35tXyARhzM5QT0kUn+ALKUWZzV2neXQruuVmNr2KM81SlmTQwuABoBIs5oGMQieRhuVKucrdLwpvStvFaiBr7pSP7peTCP86Hr9310vkCvC5b6huEJbNKP6PaaMPlv3Z1kbKEtLekbpo8d1dAidkuVIJRDo0ox6gZG0R5ZW3mNtlIZtF2V1FsMVQ1ISvbwpKHo1K7EsbC97Cv1+RxfV8ZRzzb3kuO1hjceAPRQF0LwRUYUroPA+kHgEsLpX8wbcx8iFVKlIvApgmnpkDth0o3p0UDUca6e9rCHPjLyhqr2aKx+u58YNNLxmCLQjOjzZKDSW//RMxACoJBWzJKEaZ7wE6Ahgpcp4a/Cua/fxmuFoaZWxLGku3kskaunFi4wLgH3zsV31rznDvipJtEuzeLeSaLG/eBmT5g3JGmDf3iTKq4vXPdwOi/dDiWbnbtTg9QwLSzMuNjfRChBiuNFtEASwHsoAmCXRFO3tTXHmV1lLBEvSi0Xxymux7UKv7xYHy5XMwnTlag/oHIUSzfufr10D9I//Xst9eXp+vj+22/8/vq7Tn+4v8+TjPw==);lineShape=1;" vertex="1" parent="1">
                    <mxGeometry x="341.72422053000935" y="65.53052178391208" width="12.655388100108503" height="4.233086718379359" as="geometry"/>
                </mxCell>
                <mxCell id="22" value="" style="shape=stencil(7VrBchs3DP0aXTkEQHLJc5r+R2bi1Jq6dsZx2ubvA1ZDZQmsHqueeshNlvl2CeDhASB1kndfHj98fjhx/PL2+vL7w1/nj2+PJ/nlxHx+fnx4Pb/pp5O8P8m7Ty+vD7+9vnx9/nj5+/OHvrJ/+uPlz/6Evy84oZBTR3H8dvmmtZD4n29+vQCezs8GUGdADlUgoNAEqC3EDQNkBkgoeEtltmEroS4AeQKUFiRjQJkBFLhhwDYBsgRJ9wDS2q1zHERtiHcBJNR6D4DbyujNAHIoGNDmSDOHjALHgeIEoIYjzYHnLdEWEnIrhzRziXJIBAF55hLJIMstgMkH0k0i8nFoPAMoEAichimzfcMGqMFlcHNnQwOB0zCZBFIvZZDTVG2KahwY2EAp5JkaGukIvETRsTVC8m1BzHolF6BSCtssASyBkYyFOFNVnxDB83ko0G492g8Pd+zWMyCqJie79YCnFGRz61GIQxS3HgQsho2cvYARceTt3p9wPZvnK6fhfuJm11eQNNHFV0bdurWe7foE/BlH9HfrBcQ3Dm3erScQ32gLf2csqFBOthiXwBLISEQLBPyjCWwaCypDi48B2QmpeghYrCa32UX6TgIuVRuMCGlfgetZnWMmQ7qP1xebk9du7FiCaNg31iupgMGpjIzdrQeUzi7naQTxeL26oxh7CVC6sK33OWxofbP21uGwY0kvVhO1UlbgoMquLCVY+LR1beYNdfjsENCKS/urUB4Dmm01e+ahN2gHtFkAEi4FmDRQQANeOgAITOW+pWoBSCsOjBY4hSjAVieBnaMCopO7jIyurp9YAsTbgIyuITq3CgJsobmSw0AvFFDFAlDN7ABHvgYUsttAFrBhL3G2AFQ2FZDdlhZxaG5LGbOV/RuA7Ckgu4yDNmg+eC/hN7S74kDxqB1BU3Z/heMGJFMbW97TFZGpheQyCCZEsy1DTznkpjqE7t/naHI5CmWjjoK2twHT9U5AsvOjFggk37XaRrg3VsCGSqPJ2Q1rG9jSlg7mxwLYV1Q2ZhsabG0LjX//6KtQnHO2G0q4j4lDR68+HVJ7q08i2/egWTOxfb52lugkRUuDyTV8VCNWYBLUF22LzPy+hYzHd1OftRFGxyg6rNvePEGPkj8g0HkfsdoWT7rq03GIRx3bCSTa0M/p+ud0/X+ersVqdGcs8L8quNkPQUlpY1DcH5yiaZxt66iDDjJYh3VTA/SbxTRuh9+EVSu5s1yG43U/4jOyTpAU4liqupiQUCc7YPcTBRTmbCuHbgnphAI4WqMFHWAnOySQDC24BfBnuQltKYXktH0BsIFrgyy3AD4b0MGIFkzbL2d44t2vPgxgcbfhAKvbE7Fj+ep+xgFWN0AOsLpjElv2V7dYMo67roDFPZlY8q1u4sQOa6u7PrFjy+o20VFjdV+ZbOlZ3Yj6NzQ4hXgu9fMPHIfSLKCinBbbYPdxD5PP1PMOQG71l1IRHy72e6+7EaZtXm8q3mc2ucFl4Vh3J7oKnb8uX5Djv1zILwD64cf9/6fz09Pl5wP7/9vfC+hXl98ayPvv);lineShape=1;" vertex="1" parent="1">
                    <mxGeometry x="354.1535382010295" y="57.80870734072573" width="4.510694593579911" height="9.4348639989063" as="geometry"/>
                </mxCell>
                <mxCell id="23" value="" style="shape=stencil(7VnLbhxHDPyavRLsJ7vPjvMfBixHiyiSISuvvw8Hix5t12zXxkBy8201Yk03yeJzTunDt8dPXx9OUb+9vb78+vDn+fPb4yn9dIrx/Pz48Hp+81+n9PGUPnx5eX345fXl9+fPl7+/ftokt1+/vfyxveGvCy5Isg0U9e/LgxglXp78fJF/Oj9fy6tYQIAlAjDJaQYkKW0NiFl6nQH+pK8BKY0L7IA6XnETkJPEPAO6BHKlEvGEFCSTK9UgZT7BL9kKAXSps1lTle3PFcCqZDihSSRKtygKgC5NCaBIm6mRVQLRoeXxvv0EfwUxq18p5YNZyZWsSwLyVQnMSkU6AFQqOyFKjhMgZMoldxwAuhjRuZqk2UhFKgmfWgdvdhuJEY1dvlaQj/z9BRKAVHZ/l4folBD4fWYfh/GCpb4B5JXJm+hsH3cws4/bH+Uji2QTU5BXZp8maihPCOfyGe9D9W0YZDqS2YqfIYI8tX/HgqDSST3wgNEO/jImX4a53/nP6o016RhfnecUiJdQJDNAFZsv5BpkcqPuBoRyY9KISfuhPqVMfdwr+sAzrxJS9yZp1iEXKQzQkdUlUJoG3Wm8I+roBFZ3slmJmkaorrSOs+e23MpOiJgqnFyss2jOpTkXtcABWWKbAU0CZ6vOru5l5INV+DSgt7uGxPNWoAoCWIHaAvQIIBnPglRDQCMlxAFQxh3AuiMHQM5wgBJP256DdkAbXeW/Bdg9HYIigLVTN5SutPDfMOvewi0dVxEQ2QlOjQMgse4oDptcAQq7UpJwAHRm1nSwkg3+rgDYTrXRty5PaAioHBDnrOHkC4ytEbOGA1iL4YDSENB50xmghirvGpxMdoggekTAceGeEh4Q9WAmzm8oEJsj7sRoQYDyGNUjmZirA1aUe3T1cnAA0ID4bkDFwdCrGCvt3s+Uma4+lyVSUZqN9+1VsY0as+pn6kzXd8Yv+xko1J4rCfn6YZL0+ZhRw/2qs9JlHwuWgFlpH9lZW+9uAi5lGz3UbUAebeoO8KhlVgpjTrua6BlbvbWASSx5p8kG9Dym66tFCRufmw7273nGQ5Slvjo6hR2QBuGX2RjSNy9ZiuFQR4X5MQ2ffkzD/8c0HED+v5yGtzUe8u1O0YTlqFH+W8ZuJ0S6kzPDIhtsXPF2jgiH6TaNbn2ZhWDF1saKa1WgMM+lUaeXY9usdA50iecV0iC5JzojudI1IiAxPxScL/xKdO3Xh5uutq/GmBdwb5OMTsPluEwtNDa9fkFVTnF0las9ezoUKJZdvBxBNDg1jG0ZbGTnq9VKIjoEHX3E1UKYdRYBt68un4hVFann8qyAHHopl2dLD8VxJxZKC8XhxeVZ26KYf7dvKfQ+0MRvLQVxgGKj5tmCLRcUx+ztYxChkGIHvyVUwiAdq7tdPtJ1imKmcHmmb8D66vJsxP7uz2t35f3H+7e8L+enp8unwOv/47c/f3T5bpg+/gM=);lineShape=1;" vertex="1" parent="1">
                    <mxGeometry x="372.9176520617361" y="61.095635699703465" width="4.1403835581854915" height="2.7501616420810184" as="geometry"/>
                </mxCell>
                <mxCell id="24" value="see min of all the three directions + 1&lt;br&gt;1+1=&lt;br&gt;2" style="text;html=1;align=left;verticalAlign=middle;resizable=0;points=[];autosize=1;strokeColor=none;fillColor=none;" vertex="1" parent="1">
                    <mxGeometry x="390" y="37.65" width="220" height="60" as="geometry"/>
                </mxCell>
                <mxCell id="25" value="" style="shape=stencil(7VnJbhsxDP0aXwntEs9p+x8B4jRG0zhw0u3vS9WV4iEzb5Cix9y88M2I2+OiXbx6urt+3O+Ce3o+Hb/sfxxunu928cMuhMPD3f50eJZPu/hxF69uj6f959Px28PN+fvjdZfsn74ev/cn/DzjHDXXQcH9Ov+QCrXy55dPZ/n7w8OFfKSatTzndflGtSzlKzm/Lu+jOZAAwAtEg+gNgAGgkQ8a4MGRojwvGUBcB4hJYjaAtA7ImUo0AKB0SdQsALitBsrGDxAgjjNmRYAWqVgrVQCoFNubAExsHIdCg705UqEM/CCAvweYAImuAI/UloCYKSGABN8yvANTQUoXcktPSwomBDAZ6isloHTzlJee9oF8A6HBVJeOq8QolFjrnKHKEnqclDxKN5FvKi4oofM3baFpslV55QJiQDBdvir5sHH+pbx4BMnzYNAh74ixvGcln7C/klPyiL1EXrGXI+egfCtaHgWo/N2UfEAZIH9r+YKYy1NL2j7Avy0Nbn7xbwP6Sgq3pb9mTq+RisovhvHJQT/fTy5+HZBNxldqIGO4joSdGovNgImYjYkyZF7vZszMpHSDBtZeochd6nRGSjSKqrNIFEFcsCnj2cNqwInc0kx5pvZqgVq+oUiBQt0UD2ae1JtGsK/Fnuq/erSjApU0Wfcah8uHYjsxdEM6CLspAON8m1a/AKBwFYBTJdBhShLK0CnH2ExuhPMFIGJSUsEkZipICWExBajYEW5UmQkosC70IzkNQP2UAJI6UsbRN4l3AhJVbFbV4gkggd5cXB2cBkQcTMkcCTZgkqNslMZHasZKcETyRuky2vtVwJK/JTQqzlHVIUnwZWylYsMbJZAfbroAVJyj3rwBdVUSGqpr6ADkBwk+cyRIrs7o0LYSKBjqQ51qByg/VAobOa2UlqK0kdMmWjPOuDcCIjlVUQpsD1vWzYM0vGhAlxlJ0Xd1cIJhp3O6BNwKBE33OcFoFY5gs5XwIB/ETVkNt1IxEMC0WDJJbgBYtViMG6ai21zpQwt6QzKAgPvKoCuQb5iXzGTiM46lohPIe0yV0TQbY/uzymPLF+B11fts+w+zLZ4l32fb/znbutEpv8RDROcJmkrrMMDauKDi0wfc/c+Cd8kRSAMeNDgjLkEAm32WTJKIhTia0bPAgUQAinpTgCzRB0O76sRH8ksdZPREcSdK16UfcsC9vFmmdgDq8My6Vo4EpzCzEN4A2JXzFsAstTNeS9i1+QbALuYFwMBKdvWfPexS7eVCnuPAqwB7fdEBIJbsBUkHgASyVzAdgBo2vWPooQROZDbUIo+aKXNHlfGC2jT+XR74QEqGjQr4fNX2izxqmZ0edXoyA/s43f9mB1f+ZnWW8MrmNfkA7a/Okxpsr42+Io/o0dhT2BEtwI2/Ni6OTDz0O0ton7fdiW7Ly4eXC9jbw/39+f728n99YSs/nS9748ff);lineShape=1;" vertex="1" parent="1">
                    <mxGeometry x="299.8210726057747" y="134.33877736737446" width="18.16569890543108" height="5.500325221380928" as="geometry"/>
                </mxCell>
                <mxCell id="26" value="" style="shape=stencil(lVnbchs3DP0avWJI8ALi2Un/wzNxak0d2+O4bfL3Bavhrghqj8dvsoWjBYgD4IB7Snc/H+9fH04cfr6/vfz18O/52/vjKX05MZ+fHx/ezu/26ZS+ntLd95e3hz/fXv5+/nb5+/W+W/ZPP17+6b/w64LjRk06isPvy39ipKb//+ePC+Dp/HwNSMRxBiSSdAyISs0BCpUAAJVYZ4BQKwDAJHkCcCCNxwClHGb7TMrH9pVymu0tJhBypjDbJ4s4gzOlOvuTI1UQMPsU5EaxIXupk30pFCvyP5XJvjIlEK9QnP2vSglwKFp6ZoekwAQYY3SOuBlLAYC3rzdAJRUAaFTnOtBICXAoVUrzEzSTgKRl+3qmtQoFUAclUZ1PSS3N4Fh7lsQDEniCBCriXWIQtJgDMzO0UADH2jJV9ccqwCUNnkvNXALHaqfOLtNWPICsWn2mjXwBAcRzqQqOwQBzDEVJEaD6BlZwE+5UmztMTqTolHhQbWtJ1tRAS2rN9wzreQVUXCs+cTYp4BPiyOvW5jG9RSjNp9QnD2Jr8n1eR9+5XT865tLGDIrg92vx9hn2mGodpc1JgCdUrGXNxcMjoNv2Vv9zzuIg4u2OJGPK7PaI15k9r3m0g9st0uqgungDsmfS5s4TxWvp0bkwbUyAQrbHJ59fVDSmXIITIgE6ZAQW8YCCtFGjzAsAUMgAYX0Cmpzi69gAcDbL+L0rACpLA/ipQwpYHZcy1jHnjuzdGX0gLsSrKYVip4vL2f82aHiUAqe+TEJj+1K9PU6xBu8PZmlUHy8i6aJ+dSiZI/sSnX1B53/DvqHz39J5TTjsUGwekBDjtgRd1zEKoQ25fl1lKIbmc9ABKGlLa+wu4aopyxP4g7KJHhBwp1jqEunZbt+cfUZ1IKMV7vaMeqN1Lv/7SKZ91r5vUbM/pojAgXYxMPehDFln08zpGx4LwNG0TH4aoz5n07jM9sYgtH/IEEu7PVw/zF129kgNFRmye7cXpIa2nXKPF4nkWgcddzWBRqUtN049Fdh3ZRGwuK+L+l2o30OABLQ05tDVvUZCANsPZ0bzlpOj5cltKn12AI7aHhFnTqQCh59tKq6V2uJRkUtt0WgRinbVJW14eYoh+N3G9jN4/dN8pxB8I2VRu9JvpsQBl/YldwNsSu9oe3JDXxMcgrKohH2vPSwH194b3DF7fTp+hw86RvIXd5ZMVHI5e4KbTxVduhS/7FvUaIhY02b3BKaKruKCn+SWOdT2YvaKvG3XbbdTPXbEjXwVelQWdiu+oPXqyBKJKjR4eVrskEHSlmrrl4+AFcHL9xyxWvMNIxXIuux1Dm9r28FlpZOnNkfQrUCMFJwYVHzhnX17iRUro+bvEWKCXbhLFzdJmAIgqQXdPqWxud3Q2Gh3N0BeAajQbu3KKG89rYsoR4tp15ef2hO6gF1EOVqu+ya0xCD4CZU9AF5Lq19mjY6M7kSWOywDoMnTt7/sAahf9PUyeYAgtn76FdPHAPuwv9H6fn56urwQu/7evwGzf13enqWv/wE=);lineShape=1;" vertex="1" parent="1">
                    <mxGeometry x="328.4144802871217" y="125.01817187860823" width="8.831050202767074" height="11.352791397804463" as="geometry"/>
                </mxCell>
                <mxCell id="27" value="" style="shape=stencil(lVfLctswDPwaXTEkQfBxTtP/yEyc2lPXzjhO2/x9oGrYiKS8km8yiTUJYLEAB3542z+97gZn3q6X88/dn8PzdT/wt8G5w2m/uxyu+jXw48APL+fL7sfl/H56nn6/Po2W49ev8+/xH/5OuBAo8Ihy5mNaMRTjv4Xvk/3xcJrbC0mo7JmSAfaeYqrsM3mB9uPezN56Sh4A9HxbAZwji27EJPUJrC7jE7g+wRvyGQKsVAAxJAkCjK8AYeUER7nOQsgUGQNMBYixrNwCpNqH5HHihELtQ8olbsuA3DIv6yVBHqK01MhCPtwG5Ewm1wBdAVHS7RRagAN5yJFMagGCTrBkpAVEENbkiDsfUOKiI2M7AOKSXsncAxjJ3J8AMu1tS43RaZA4FmLXhRVEiR257kqIfApoyZdLZpYBoVzgPyBRcsBplRnfAgIAiFZcbgEeq0YwHQCQL3qS2AEQ+XwXpQTzoBUcO6eRLul2Ww+JMjjBGrNAVwcKQv+wryDkdVa974o6gEQkWSiIBPitSiZ9UaOuq4mohWkWh2U2aVuM3RHAa++JO2VCBOe4oK4B5FprrldXBkJzN0BHBdvQT0qzv8Gmkth5D0I11xbE2OSQz2WY2thFuVTLxjatElD//8ocwC3xVgYNLgq0cZLhVrhXRiWdlOrKWZnF3J3DniNf269Mk7bsbptWtXXW4cfDcCddeNY2RRO+zHHsk2vMPWiBqVU5Qw656lsZNWQB0zQ20jprUGa1kDp7xPxYCm+bvZdy3W330Xbs/B3+Sirh2xbP0FEZp2ucr8OwnQ13P+xW7fXj6xX5cjgep0fofL99derS9GLlx08=);lineShape=1;" vertex="1" parent="1">
                    <mxGeometry x="351.76644699145663" y="124.47497648684805" width="0.24157967503993702" height="10.426692720850852" as="geometry"/>
                </mxCell>
                <mxCell id="28" value="" style="shape=stencil(lZfbbtswDIafxreEJOpAXXfdexRougTLkiLNTm8/aoY2Swp+23eOzS8ixZ8UNfHTx/Hl/TA583G/Xb8efp5e78eJP03OnS7Hw+1016eJnyd+erveDl9u1++X1/n3+0uxLE/frj/KP/yaueyJXaGc+T2/MSTx74vPs/35dFnaO8qmsc9kBNhbktTY20CCAds65JjEA8BQkAZg9TFAwOYG8I4SiFlyH3NwFDIEUgtER5YhEEIDJE2DgYD3LZAoOQhwbABhYouBNgZJFPEuuXYF3eiMMu2qcv4BTCEBIFCwLRCquh4C1hgynVpVrmCbciKWHmCgPo1ahhUiWCEJmdgDArQRNU+pBzKI2idyrb4X+/CQYEs+D0sAn6xKgXsgAZ8S2SHogBYgO8TsgL3pQ85CGWTB1xwt7COoBst9RSvAoMm4WDvEArCgfLytDi8AA4Cg/ze4hIDE5HmPSxJrh9gYtJZjXz14W4tqhhVQ3vSzDMJDwtAmI74HkPLE9Y1yRdpRKAwdABWPHh5xZ33GuosbW4DWTx62CTUZO5yJpY2BzLkHHqE+ubcR77X3QwfDR0Maqg2fPbpBqdMRPt0KsOv8VCC2K6yc0AqEVqkrM4ACfteUoQDvmmOKjHZNSqrKVkYro5iOPW3aVmY9qbPmxmFSangbp9U09GA4DQeKrTt42I6UY2ceQbBFcqGz90hxkcR19g4kS4tssLfAH/bk+nANsPe+FsjCHsgzhNpyttnHUMtjmz8pkO39R/FqvQ72aD/LxLwnX9qiTB8v0sPuu92qvT78v0i+nc7n+R66/N5fPPXVfGnl5z8=);lineShape=1;" vertex="1" parent="1">
                    <mxGeometry x="333.46230080915535" y="144.00104283755894" width="0.1815723625467748" height="9.279069837044922" as="geometry"/>
                </mxCell>
                <mxCell id="29" value="" style="shape=stencil(rVfbbtswDP0avxKSqOtz1/1HgaaLsSwp0uz296NnuIvI+dgD9uYo50gkdXjRwA9vx6fXwxDc2+16+Xz4Pj7fjgN/GEIYz8fDdbzJ18CPAz+8XK6HT9fL1/Pz/Pv1aUJOX18u36Ydfsw8R6VMpOB+Lguu/V74OMNP4/kOnsj3cE8ZwH0krh0+UE3rePnbc4dnuD97CqnDy4FuHR89cVT4EoG7nlpvfyKX1/E5UAoKj+wpgdgrfCzr+Ors/gnEp2ZKTuFzXcc3R7UoPIpPi+SixgN7WqPQ36/IDcRH8LG3J1AOEF96f72jgA9QDouiG/K4UesJnCkzSAH37uJ7jAIVj4/oRZ0rJUyovSqq6ArISAi5v4YmeYm95tYTKlXgtRB8L4zpapAPlVofpZaW2rFGyL1JInaUa0JIvUmFKWKTYu4vrpLDJimC1Jv2TyYFSVh0ccZpjwukDWvcSiB1b5I/OKGVMPzSIXYqr5AHBdVK2xfKG/nZJ4/0iATu4C/5GctSlXeWgMxLFHYWmSJCwlFSZazKFtgkVSdb2TJJFeK7OPwvhmkOshKQF6b7TASgDtvehMBA3rZ/CgHVANughZBA4bMTgBAKiJIdMYSAOpCdYaRSoijZIUkIyCQ7hbUMM8KOeSI/D+Y8M0ZKnUIHmCl1ykGIT1XvH0GI3CKCe+GBCDkd0SrpBvdXAZUCwCA+TmdOLvDG7IiRycH46JLHiwr32cMB9lrj7/ROAJo28fRhAx/12FyhOUoOfum7+9SG30SbcPn48/x6GU+n+fV2/79+rsnS/NTjx18=);lineShape=1;" vertex="1" parent="1">
                    <mxGeometry x="347.88077740116046" y="153.28941625428033" width="10.408912148801365" height="0.16123727400373306" as="geometry"/>
                </mxCell>
                <mxCell id="30" value="" style="shape=stencil(lVbLcsIwDPyaXDW2JL/OlP4HM4SSKQUG6OvvqzQTikwQ5WaM1rK0q40bmh3Xi33boDueDrvX9rNbntYNPTWI3XbdHrqTrBqaNzRb7Q7ty2H3vl0Ov/eLPrJfve0++hO+BlwsUFKPQvc97Dhw7nfjeYjfdNuL+FQg6HgENOJzBq/j83jAZHxhyFHF+wwcDECGEhSAHKRyG+DducIRwQzkjRQJileAkCAYKQpCLgogbUY2uhSAdZdSBmcAUgQm3VYCl28DYoTka0A2ipYSiTXAjVROAlhKzLoGhGDUwARUdcmPl5wGOEAN4AwZHwFQACTzSqylIfImq4ZSZ/AewkNtpVErN3nDaj7RGIdeGFzFF+P8XnmatQjOaKlIu+gOeZlYo6XXwyMZ2FDqxHxSgWR5xpUFBBpp+afJxADRKKJ3MQ1IAcIdm9SA7Mec0zyLD1cABncHkB4CeChaGcIlGzUErC1DuDTHDUclnLXh7K8JYU2EcGm5kkwLabkW27tFnZU2skyUIT/xXR0vExWNgRPbrUyMTQNwQJVWvUnb9TAk0+ixvj+ebXZaFnVD/Z3Pp6hCJ6gplsXfa2PVbTbDY+Xy//p1IlvDy4bmPw==);lineShape=1;" vertex="1" parent="1">
                    <mxGeometry x="350.07797477659" y="114.10851567244691" width="0.38100377803745483" height="0.27265444339365213" as="geometry"/>
                </mxCell>
                <mxCell id="31" value="" style="shape=stencil(7VnJchQxDP2auapsy/JyZvmPVBHIFCGhQtj+HjWDO7Y081Jw4EBxm0WvrV1P7gO/+HRz9fH6kMKnx4f799dfj28ebw788pDS8e7m+uH4qJ8O/OrAL97eP1y/e7j/fPfm9P3j1Sa5ffpw/2V7wrcTTjKFtqFS+H76pXdK8vOX1yfA7fFuBiRqfQUkyhUAAqW6AFqgyJcBuVGOC6DqIxoAFMp5AUjHJ2RKvABypdQBIFJfVWIhLpcB3ElWlZKeGQGgWkAUigEAyvh7dytt3y7KZ+qrPFMHcWamYhSiClzEieLqokwR6JO6TYtCBQQ5CdVVvg+DzssnCmXVn0lAyGKzCsVKDDSKmYqsMY4UESASryFQH/1y8llAG4W1y1fK4IBCvIZAfcQgBmItVnlBZTAyZpKvoPQzidOng7rUjFxbCwcKwD9MOVh5VDOJanPyoCg1pavTBwWYSnD2An/GUSGTfAMpGqiylS/g+WFkyxxf4J8wetokj9pisP5XeeSfQGL0adRA/qi3zfMLVRCv4Apyz8AL/m/Gn2mceCnf1nhFrS+QnzKqb5dX/UHPrba+tMVk8Py495sdoCkODNCZEtYK00dkkHFbCAxAnQxKWG0IyQIEzZk8XDKplIDRmW1WqNECVJI4Bsvk1gS8VLQrmNFXYJ8ozQW6jdZxPtDFBm6rPQBoPAp9StUCVOrBzYJMDcyC3i0R3IYN8JICSrSAggGdLaCB1OjdzgPtF4hTKKBFC0AjXAG2gzXs1jZI0ASo6IRmacgzPa9XN5QVgE4oJMkBkA0ynjcbjeIgtu9tzARUnAKiDxyyQUZBTqnRsQ2eGj1jg+UuFfZWdatPbzQMNXDsVErIS+oTpxJavfqeOROAcQHlYgGoVW4F5FSqiDQHP6M14/ER3QEYtw1xFSQoctrJXBeoOBC2VzbcmHYvzgCUG2V4cQbg7LPduEHq89uAVt0yInCh0q29mS7AkP1XdnQyDgJ4foyK5c/Kr9C+I35prqMZnucOfVCLactG+Z3DIOQzdwAq6dpsT9BfEMMqjvQphwM26OBntoACAE8mTio1xBKT7QLbXQTioWFM2SkOqN/rvDGrNl5k9jY3sR/Ui4uTz7ADiOv1BY7Qv7A4Jyv/jy/O/qLg/+L8x4tzcutFg3M/n6EuaBGuzv8Z7jvROyjgRZVd3y3Q4lhtyPQRqARUgb6e0AcLOC+f7f1mGcz+Ul83lxEMN7wtA8ymDVcX3ZvDmtMB3100SxAiTGnuw31P+qOWqJMyrf7Eu1qOg55MkxXVvO791ScdsCAXGzEWOIqzu2/NdSwy58dAsCpJh0knyV521AAHpWS79ysNC8CtSonMy5OeYN5Jsyopf0bDfgMkC4C3YM0S+I3SIxvcTXzH7VqNbg7Q0LxXQtEtAA1YKZYSdTyhFJBMuQVcoCJ2SG1HoMjJeKM0W410yu4VCqYhCsgu1Oh6RAFm8GwrKMqN3379+DxAPzy97Xx7vL09vSyd/7dvR/Wn05tVfvUD);lineShape=1;" vertex="1" parent="1">
                    <mxGeometry x="350.1923237907024" y="135.7994634549713" width="3.4368606834646425" height="9.97319695230833" as="geometry"/>
                </mxCell>
                <mxCell id="32" value="" style="shape=stencil(7VrJctw2EP2auaIANNAAzl7+w1WWo6kokkuWneTv08gEFNFNPEY3H3yb4fARvbxeORd69+3+09e7S/TfXp6ffr/78/r55f5C7y8xXh/v756vL/LpQh8u9O7L0/Pdb89P3x8/375//dTv7J/+ePrRn/DXDdeaI99R0f+9XWn13ysfb4CH6+MeQI7DDKiOAKBml9IMSC7SGlCqq7NIVURqAOBdKTMguZzXAA6uziLJmQEAcnR5PkHOrLwGJHKZJwCTi2kNoDx+HoCcHQOzxuLaDEjVMbBSDEPiDRAdAz+EMtw0AFSdjwBAruYZIH4AOoTgogJE5xH5XFISeZcK4J6LM5PkCYgYxfmk7/fwflbyhxN51PNJTAZ8JpEwxxoVR8gD3vlZ4RRGMK08kBQp2DXsYz+rLLFBAQDSYOUGKK4AmwZ2YY41Fp4iHQxPmR2BWBPAf5G1AXD4C6BEDYB+EEDQgIx1sCIxYFIHmBMqFikbHRpIYQJIM5cYB0P3Q9GAgEUKZAAoI/GoA3sAIh/rnHemAw9u7q2EuMQ6BfAWtCtAbhrASKQ03LQBEj6BhtW3iGs4Hrxrsx8kpgNMS3m+X8pdAezm4aRdXWBAPXJNpe0MU4YUjdmkPTqA/NIvzPJ3CwCimqyaXQMO8DpFSoZEgaYrvx9VcWGcnNXtHti+aNnDSK+rgkAz2winRkm1Kr3DvNW7kNn2FVZMkZ/mpNIlBL6lrVhsgAQ1lpKqmoTXED3u7cJomzZAHY3PMYBH27QRYiu7K0BgDUAlUADRAArSgXXb34Po5ISmAaiL74CoAQlkoa60EYlBmCWJwqwBBYSxAEo1AOSHrLnUAUgHM+t0HTCAgrES6IAFoJqd7ocTgDnBY6VVPorbuLTUwdD7ROmUNSAhtoofbAAhtubB/h0ADamdS8WcgOkdjEhotOjxQBoA2WojLow6/f9jOuA0E00AEUiVXWkDOFHa25jGnq6G3mchygaARMqDanuRMDXeCDBT7WtHcFyBWI95fX7ANU6XrAwdJx2YoneIsMZ19qulDdQ5GEfz6OFWbYafVU4ugVzPegCLsGsgva4J0DzB2H9E0uJ2rzg6+uHV7fPT8WInHDSnqPbT2JjsyEMoTYyNw665JrjjUGWZ8PquHQwHqJ8NwUwfAeaI3s+pVVmF4SLBocfGNIrirwXBrwXBm3T4CRcEprNgxku/rMcLpjFBrzYKqshKxEVEjTDeIew2CpB8fmwotqxR4LRgNqMpwoArOivJ2IcEYt1xStZDWZX1zE8BejnrNxDkoQts51VGSV/oq8b4WGDHbOwpV052RnqmbbCCCyVq0RaCkZZ030VbWV9lC31CGaX3uMmJ+oQ+2gNS9MWX2pYXvMgy7WxO8ISUTMbDPXw2yz5JYGhE5aiZUQpeIAWdtSvBbqq0MZBugDoG72PumWBocYz2xy2GedHUsA6t6aVZ21y5AqhyKwDkOAGol5YCKIB8HdA0AI3Z/b0sawB6LRq82VvKMxCZjhEoDXShigZkrHYLGoD6mG6nqAGousnPxZyA1rVd4moAWCQ1HO0Mt0K88S37OUA+vL7U/3J9eLj9J2D/u/4TgFy6/YGAPvwD);lineShape=1;" vertex="1" parent="1">
                    <mxGeometry x="339.7126618268763" y="135.76778548082345" width="12.184050124135918" height="9.623337951157955" as="geometry"/>
                </mxCell>
                <mxCell id="33" value="" style="shape=stencil(lVnJUhsxEP0aX7uk1n4m5D+owgRXCKYM2f4+rbhkRt3Wo7gNRm/Uy+t1duHm9fHuZb9j9/p2On7f/z7cvz3uwpcd8+H5cX86vMnTLtzuws3D8bT/djr+fL4///1y10/2px/HX/0Nf8641ijWjmL39/xLcNTK/1++ngFPh+ctIFBOBuDXgFqJzQ0V3FA9xWAAYQ0ogXw0ItU1IAdqbgZ48m0NSIFq04ACboiBihKJKfEaECJFPwMChbgGcCanbojkgUi+kVOOS+SAWX2gVDSgAisJlZREmRI4nynwfL4QAyZF4qjPR6AxDxJszgeHzrus5Ues8FTVeUcByC/yzPJzGjde5wTFmXTyBmwfJb+v48bF+Ty/32PKRaozgSrVzxyPMOwTlVn6TAyOR21M7yhBaThrZZExhfxzEvJChoScq8SXeGNMNkUGHllsQbZiyFNQQhm+2SSgAsgmwaiCvcHs0KjM9onYX97UjRRHQroOKNQUIZgCCEcxYJhVLo4yisc8UvIFUMkjTrhBgUsESAwBp0kOT3OhaY4iCvlMbTZryzCrS0pzRQMS8JsA/JwVWxlUXAFU2hVABo67ApAWADiui9Q0ALUUXWkFaKNnWJo1aUBFN+RR3jeAhnTIg2pbAIgHAUQjUkF+MOVSAAErzUGbtWAdrB88Zisrehfc5VxyxIatDesQmgZERL48qsA2gPANxWuAwzpUowPMGmUk0q0OoDT0eEgaUJEfJOJY+yF+ENPqhkoOpxn2GlCw0l4p3WB96FZyGlCQlbKucD3iMDXy7Djv3Lh0SSYjE2p5Pg8IJpPJ5ADMZOtuLTAx9TlhvkHmK9Qo9bZ2Tn0lwgiSQh1nu+aMK3vQ3EgF5vtmzkujDS5IlOfOQcaxgAcFNXuVkWuvnndXxkfU2jpN7fdua3Hez+EsPmHgMqdTmLgkA/nNgO2ljYG9qleB42F6YT0tV6huGFPixb2U4JiTZ356+Pak+04c85IkFNfgjGbLDSV4XFVYn+CInEaXshnpKvBs0j1C9x2IlKhTYjcXnLqcen8d9lq41qkRXIZaIH/UZSbIjYALpp+Q9xegbxuFd3Me1e6+AzFjVESApi0kuSGhuTEbgBtz+WpTpFoixjWm76JYA5BR+7Zr9pp4mYEO2azHuMC5yG7sBIAytN0JcoG7Gbt17AAQmXav2QGoKJnNqQBQ2ROAGhE+vqEYpRlYqTcbBoBqfe+YjEgNZMf3oWZDDVQqNy3WBoFWp9cQDdLvilANNqdW7T7Zo2WHMawA0OrRuk4AMDEZcvQdNjDs5xf3HwPk4f07wcPh6en8mWH7f/1dQX46f5MIt/8A);lineShape=1;" vertex="1" parent="1">
                    <mxGeometry x="339.0676001208238" y="145.68816341492095" width="13.490073911474054" height="3.5769054431223273" as="geometry"/>
                </mxCell>
                <mxCell id="34" value="" style="shape=stencil(7VnJUhwxDP2auaq8ybbOJPkPqhjCVAhDDWT7+8iZcjOWux9wy4Hb0Oi1rf1JvYtXT3fXj/tdcE/Pp+O3/a/DzfPdLn7ahXB4uNufDs/6axc/7+LV7fG0/3o6/ni4Of/9eN0k26/vx5/tDb/POE++NFBwf84PUiJJ/558OcvfHx4u5AvFMMozubAtHwJxmgB1GxCFEluAj9sAdsRuAuRtQA5U/AQAVypMwU9GAoDKVCdAKtsAiZSNG2J3zDpA/VBHgKMClJZMdfRDZEoCAInyeELUWAGeFk9ZBkBgqHStFEdPe4E61ETVABIFdIInHnUQquCAIhRHvxVy4P2lkh+Nyj3a1+ULVTHy8P3FmlTDCAVqIc6jz6g6LB+MPMrNJj86IHQXbt5/vI/vDzbtYxxMDr1f7T+mvusG2JKPYuQDsk+lEoy88zB+HFt59H6xWexg5VL5bOVRDtdg76OlD5RSTTAXbTyD+9dMYYz/2gvfVsabyusD7DZaU7wJoEKCC2kYC6mGdAQqy1LJF4A2IHQl1Xm0qRZSQYW0kDdJrD0RA8rohaRXQpVXbTJaiTN5kDcKqCOg9UQMiGOiZaGArpQpjTpoE/VIae5uWkLJYStprJrYY8rIcYHyeIK4rtV6tIqtFlIpI0AlGUNDpJthC5C8BQg6QR0XJgBiIoVCtoAMPK0pXapVWjAgmSsVmNOtaBg/ZBh8KwCGbbBdyZhVeQIGFGOl2O22adYx+DS6GOlQeiO+AKDW08hRnQDoSuqmYAEFpGgL72KVZhStU/dpHBGVe5mU5t7gtwDFJJAWT3yC4f4ardBK0t93kQ+oLqlZWSygYIAb/eAdZgEaGynZIxBt03C1rsbVWAGG56mZYOnLto02RyC7ZjsiqathJcu23rdgwidko4OGKyL/7waIZdv1lc7uOxtcAB7OFy2FzXyhvkeAaEtfUcIEEkImBpdLL+hbAB49rVQgISqQqIwpp2QD9t1kg48xS1eAYfU6PaOe1axkKFnt8/SmH8YTYuxsYh3g7ECvk2FFHaX2HnjBQz3OB0uNa4/fLa5uEsgvE/vWMODH8u19H3fXActw8cLuGU2HH9PwxzT8P0/Dzi7Z1F+IqAZLthlzvGwHPe/g5rLxI0MVGHYoiTbnNSQCHlYNe2kbLdQ/FiJxURkRA7sgNwtCINluDG1aOWfUZqPNg6Q9DTmO7XirAzSsLGy1VgBitisrZOn71bcuqfEqcmUNjkfDlUW7vG+Tzzg9py8FTR742U3VHZcLZ+lawkTb2eqV8OLG2Z6fKlwluR4yF/JoCzPlQVqG9TfLo/I73yfDbcSsb4btY7YnwwXM7C+GtWiKh1e+HL33y9Tr8vrj5TPY7eH+/vwV7fL/9rOZPjp/couf/wI=);lineShape=1;" vertex="1" parent="1">
                    <mxGeometry x="358.69934904605316" y="144.76745070180692" width="5.9293196135060935" height="2.73054683803896" as="geometry"/>
                </mxCell>
                <mxCell id="35" value="so here min of all three directions + 1&lt;br&gt;0 + 1 = 1&amp;nbsp;" style="text;html=1;align=center;verticalAlign=middle;resizable=0;points=[];autosize=1;strokeColor=none;fillColor=none;" vertex="1" parent="1">
                    <mxGeometry x="364.63" y="124.47" width="220" height="40" as="geometry"/>
                </mxCell>
                <mxCell id="36" value="" style="shape=stencil(lVjLctswDPwaXzEgQYLkOU3/IzNxGk/TOOMkffx9oXrkiqC0Ht9keVcCgQW41E7u3p8f3va7yO8fp+P3/a/D48fzTr7sYjy8Pu9Phw+72sn9Tu6ejqf9t9Px8/Xx/PvtYUJOVz+OP6cn/D7zYqYmEyvyn/MdJtZ/N76e8S+H1yW+UAsdPhDnbbwItdLhhSp4fhLS2OErcdzGZ6bi4uH5jeuEOiwgkYRtghbS1BMKVUAoSjF3BMtRBISaKDhCoijbhMaUtSfonLZ1QqbgCHUOcp1Qh5AaCahba1T7uglTBITAJjTuGQEymuW1L4RY4kCpLU2h9oRKwqAQgVq/CJNjA3ktgUofkumxgrwqU+rbzfSYE+gH+7snqJUaLFrUE0qiBt5gWmu9NqrAERCUUt/StVFAcvUvaEIFLCH5KrQC6xznCXHBN2LQbzYyBnyDeB3xIEHWnTzgG8JLn89Fb2wQXCNML6gIH2TAA0nwPNIX+AoKwHO6l3gYPw8JKqDN1uJR0GVr682wAHHEw/yIDngYf2oDHjTMmuAyXO8oaIX5L0M8aKawn+1TvWA8dahvhfkpo95gvXTIf4Px5LFf4POT9xRXG7Le9oJw4wK4DHjcYEPBKhTcSkPieIaGwQIKw/MVTtzb8IGSW28lBQMxzTbgglfoSs37uPUKJbRF5jndly2ywg6YIupXUCOsgORZAIttXkGJU/EEMxLI0eU2u9yFVUGu1MxQcASGY9Tslmubyf0jf9Z8I0uBG5/5XmeU7TyCdjLTmbeM2LtPhH6Wmu9Fs928TOnrYOoqSHuJSq8l8+6KCNY9vZbs0IbOUOb3tF9DxFoq2W8g1oGoP/Vi4C4T1bQEQjKpuY62U1oBbzCpRUcIs63aOmg6tdbZmm8dZJ1zT/C0Yjl3M8OGFGhoO4hLr23bhYC0DR/V40H8Ez44PMqP4V0nMDwmr+EjOnZYPOzw4cp6s8ejiZr9RL1solv45PPDOJ95wOP86BAPmHWGL14PV55fBzyO/7YPP1fxdvH/K9PT4eXl/JFq+b//KmW3zl+05P4v);lineShape=1;" vertex="1" parent="1">
                    <mxGeometry x="601.873460342842" y="61.82603239203405" width="50.20373679058612" height="85.88511959947651" as="geometry"/>
                </mxCell>
                <mxCell id="37" value="this way you can start from the topleft and keep filling the table" style="text;html=1;align=center;verticalAlign=middle;resizable=0;points=[];autosize=1;strokeColor=none;fillColor=none;" vertex="1" parent="1">
                    <mxGeometry x="650" y="73.31" width="350" height="30" as="geometry"/>
                </mxCell>
                <mxCell id="38" value="you might need 1 layer 0 padding for this" style="text;html=1;align=center;verticalAlign=middle;resizable=0;points=[];autosize=1;strokeColor=none;fillColor=none;" vertex="1" parent="1">
                    <mxGeometry x="584.63" y="92.35" width="240" height="30" as="geometry"/>
                </mxCell>
            </root>
        </mxGraphModel>
    </diagram>
</mxfile>